<?xml version="1.0" encoding="UTF-8"?>
<!DOCTYPE svg PUBLIC "-//W3C//DTD SVG 1.1//EN" "http://www.w3.org/Graphics/SVG/1.1/DTD/svg11.dtd">
<!-- Creator: CorelDRAW X5 -->
<svg xmlns="http://www.w3.org/2000/svg" xml:space="preserve" width="84.6666mm" height="84.6666mm" style="shape-rendering:geometricPrecision; text-rendering:geometricPrecision; image-rendering:optimizeQuality; fill-rule:evenodd; clip-rule:evenodd"
viewBox="0 0 8467 8467"
 xmlns:xlink="http://www.w3.org/1999/xlink">
 <defs>
  <style type="text/css">
   <![CDATA[
    .fil0 {fill:#260073}
    .fil1 {fill:#330099}
    .fil3 {fill:#6666CC}
    .fil2 {fill:white}
   ]]>
  </style>
   <clipPath id="id0">
    <rect x="1676" y="1541" width="4547" height="4538"/>
   </clipPath>
   <clipPath id="id1">
    <path d="M5668 5909l229 -118 139 -185 0 -2769 957 -59 25 4335 -4167 -4 2 -1204 2814 5z"/>
   </clipPath>
   <clipPath id="id2">
    <path d="M3040 3141l3017 0 -17 2405 -56 137 -70 93 -104 77 -140 55 -2629 -5 0 -2763z"/>
   </clipPath>
 </defs>
 <g id="Ebene_x0020_1">
  <metadata id="CorelCorpID_0Corel-Layer"/>
  <rect class="fil0" x="912" y="949" width="6435" height="6435" rx="847" ry="847"/>
  <rect class="fil1" x="912" y="949" width="6435" height="6341" rx="834" ry="834"/>
  <g style="clip-path:url(#id0)">
   <image transform="matrix(1 0 0 1 -2556.92 1845.72)" x="4233" y="-305" width="4547" height="4538" xlink:href="JobHelperIcon_Images\JobHelperIcon_ImgID1.png"/>
  </g>
  <g id="_382617768">
   <path class="fil2" d="M1859 3170l0 2323c0,103 43,199 109,270 20,21 -2,2 27,27 45,40 52,44 107,72 40,20 107,39 165,39l3362 0c103,0 199,-43 270,-109 31,-29 46,-44 71,-83 16,-26 13,-21 28,-51 20,-40 39,-107 39,-165l0 -2323c0,-130 -81,-266 -188,-335 -75,-48 -149,-69 -250,-69l-3300 0c-175,0 -319,81 -395,234 -24,47 -43,114 -43,170z"/>
   <path class="fil2" d="M3111 2337l0 222 419 0 0 -194c0,-132 90,-222 222,-222l388 0c132,0 222,90 222,222l0 194 419 0c0,-113 8,-255 -18,-358 -20,-78 -26,-80 -52,-139 -20,-45 -77,-121 -113,-157l-40 -36c-110,-89 -247,-147 -392,-147l-445 0c-80,0 -182,24 -249,57 -10,5 -15,8 -25,12 -45,20 -121,77 -157,113 -7,7 -9,12 -17,20 -30,30 -26,30 -52,64 -67,89 -113,235 -113,347z"/>
  </g>
  <g style="clip-path:url(#id1)">
   <image transform="matrix(1 0 0 1 -1380.05 2878.65)" x="4233" y="76" width="4166" height="4157" xlink:href="JobHelperIcon_Images\JobHelperIcon_ImgID2.png"/>
  </g>
  <g style="clip-path:url(#id2)">
   <image transform="matrix(1 0 0 1 -1193.79 2692.39)" x="4233" y="449" width="3793" height="3785" xlink:href="JobHelperIcon_Images\JobHelperIcon_ImgID3.png"/>
  </g>
  <g id="_36199560">
   <path class="fil3" d="M3138 5008l0 8c4,178 10,321 63,492 28,90 47,156 87,240 12,26 26,53 36,77 30,70 123,213 166,272 64,88 129,155 206,229 40,38 67,65 111,100 153,123 170,122 327,211 28,16 47,26 75,36 29,11 44,19 74,30 29,11 53,20 81,30 164,61 353,91 546,93l120 -3c222,-12 441,-62 624,-147 273,-128 482,-275 678,-519 151,-188 226,-336 308,-556 70,-189 96,-400 91,-612l-365 8c7,300 -54,494 -178,729 -128,244 -359,452 -604,582 -362,193 -863,206 -1234,30 -227,-107 -410,-250 -563,-452 -144,-190 -275,-487 -281,-747 -5,-220 -11,-272 48,-496 41,-159 135,-342 233,-470 140,-185 291,-311 495,-419 179,-96 444,-166 656,-156 210,10 149,-2 359,42 35,-25 107,-108 142,-145 26,-27 46,-48 72,-75 21,-22 59,-50 67,-80l-296 -71c-113,-20 -234,-32 -355,-33l-118 3c-121,7 -240,26 -352,60 -57,18 -113,33 -165,55 -108,46 -194,83 -293,145 -264,164 -481,393 -635,662 -14,24 -22,43 -36,68 -15,26 -26,50 -35,76 -89,234 -160,418 -153,704z"/>
   <path class="fil3" d="M4759 5247l-567 -545c-23,35 -91,99 -123,133 -40,42 -106,97 -125,127l823 790c34,-11 198,-197 226,-226l658 -688c148,-155 291,-304 439,-459l384 -402c19,-20 43,-34 49,-63l-253 -245 -1511 1578z"/>
  </g>
 </g>
</svg>
